# xmcd
#
# Track frame offsets:
# 150
# 17848
# 29269
# 42451
# 54855
# 71097
# 86605
# 100870
# 116836
# 132610
# 147544
# 164145
# 179339
# 196786
# 210699
# 225609
# 243822
#
# Disc length: 3477 seconds
#
#
# Revision: 6
# Processed by: cddbd v1.5.2PL0 Copyright (c) Steve Scherf et al.
# Submitted via: FreeRIP 2.945 
#
DISCID=f70d9311
DTITLE=Reba McEntire - Reba #1's CD 1
DYEAR=2005
DGENRE=Country
TTITLE0=You're Gonna Be
TTITLE1=Can't Even Get The Blues
TTITLE2=You're The First Time I've Thought About Leaving
TTITLE3=How Blue
TTITLE4=Somebody Should Leave
TTITLE5=Whoever's In New England
TTITLE6=Little Rock
TTITLE7=What Am I Gonna Do About You
TTITLE8=One Promise Too Late
TTITLE9=The Last One To Know
TTITLE10=Love Will Find Its Way To You
TTITLE11=I Know How He Feels
TTITLE12=New Fool At An Old Game
TTITLE13=Cathy's Clown
TTITLE14=Walk On
TTITLE15=You Lie
TTITLE16=Rumor Has It
EXTD=
EXTT0=
EXTT1=
EXTT2=
EXTT3=
EXTT4=
EXTT5=
EXTT6=
EXTT7=
EXTT8=
EXTT9=
EXTT10=
EXTT11=
EXTT12=
EXTT13=
EXTT14=
EXTT15=
EXTT16=
PLAYORDER=
